<svg class="symbol-icon" viewBox="0 0 23.37 18.06">
                                <path d="M13.61,0A9,9,0,0,0,6,4.19H2.54A2.54,2.54,0,0,0,0,6.73v4.6a2.54,2.54,0,0,0,2.54,2.54H6a9,9,0,0,0,7.62,4.19.65.65,0,0,0,.65-.65V.65A.65.65,0,0,0,13.61,0M5.71,12.57H2.54A1.24,1.24,0,0,1,1.3,11.33V6.73A1.24,1.24,0,0,1,2.54,5.49H5.71ZM13,16.73A7.77,7.77,0,0,1,7,13V5a7.77,7.77,0,0,1,6-3.69Z"></path><path d="M16.81,4a.65.65,0,1,0-.74,1.07,4.84,4.84,0,0,1,0,8,.66.66,0,0,0-.16.91.65.65,0,0,0,.91.16A6.15,6.15,0,0,0,16.81,4"></path><path d="M19.33,1.3a.65.65,0,1,0-.74,1.07,8.12,8.12,0,0,1,0,13.33.66.66,0,0,0-.16.91.65.65,0,0,0,.91.16,9.42,9.42,0,0,0,0-15.47"></path>
                            </svg>